<svg width="1376" height="153" viewBox="0 0 1376 153" fill="none" xmlns="http://www.w3.org/2000/svg">
<path d="M1224.4 76.7327C1224.4 117.729 1191.23 150.964 1150.31 150.964C1109.4 150.964 1076.23 117.729 1076.23 76.7327C1076.23 35.7359 1109.4 2.5015 1150.31 2.5015C1191.23 2.5015 1224.4 35.7359 1224.4 76.7327Z" fill="#E63946"/>
<path d="M84.6245 46.6854C84.1406 41.3527 81.9875 37.2077 78.1651 34.2505C74.3911 31.2448 68.9963 29.7419 61.9805 29.7419C57.3356 29.7419 53.4648 30.3479 50.3682 31.5599C47.2716 32.7719 44.9492 34.4444 43.4009 36.5775C41.8526 38.6621 41.0542 41.0618 41.0058 43.7766C40.9091 46.0067 41.3445 47.9701 42.3122 49.6668C43.3283 51.3636 44.7798 52.8664 46.6668 54.1754C48.6022 55.4358 50.9247 56.5509 53.6342 57.5204C56.3437 58.49 59.3919 59.3384 62.7789 60.0656L75.5524 62.9743C82.9068 64.5742 89.3903 66.7072 95.0029 69.3736C100.664 72.0399 105.406 75.2153 109.228 78.8997C113.099 82.5841 116.026 86.826 118.01 91.6255C119.993 96.4249 121.01 101.806 121.058 107.769C121.01 117.174 118.639 125.246 113.945 131.984C109.252 138.723 102.503 143.886 93.6965 147.473C84.9389 151.061 74.3669 152.855 61.9805 152.855C49.5457 152.855 38.7076 150.988 29.4661 147.255C20.2247 143.522 13.0396 137.85 7.91086 130.239C2.78211 122.628 0.145153 113.005 0 101.37H34.4014C34.6917 106.169 35.9739 110.169 38.2479 113.368C40.522 116.568 43.6428 118.992 47.6103 120.64C51.6262 122.288 56.2711 123.113 61.5451 123.113C66.3835 123.113 70.4962 122.458 73.8831 121.149C77.3184 119.84 79.9553 118.022 81.794 115.695C83.6326 113.368 84.5761 110.702 84.6245 107.696C84.5761 104.884 83.7051 102.485 82.0117 100.497C80.3182 98.461 77.7055 96.7158 74.1734 95.2614C70.6897 93.7586 66.2383 92.3769 60.8193 91.1164L45.2879 87.4805C32.4176 84.5233 22.281 79.7481 14.8782 73.1549C7.4754 66.5133 3.79818 57.5447 3.84657 46.2491C3.79818 37.038 6.26579 28.9663 11.2494 22.0337C16.233 15.1012 23.1278 9.69582 31.9338 5.8175C40.7397 1.93917 50.7795 0 62.0531 0C73.5686 0 83.56 1.9634 92.0273 5.89021C100.543 9.76854 107.147 15.2224 111.841 22.2519C116.534 29.2814 118.929 37.4259 119.026 46.6854H84.6245Z" fill="#E63946"/>
<path d="M139.202 150.964V2.03612H200.602C211.73 2.03612 221.335 4.21768 229.415 8.5808C237.544 12.8954 243.809 18.9311 248.212 26.6877C252.615 34.3959 254.817 43.3645 254.817 53.5936C254.817 63.8712 252.567 72.8641 248.067 80.5723C243.616 88.2319 237.253 94.1706 228.98 98.3883C220.706 102.606 210.884 104.715 199.513 104.715H161.628V76.3546H192.836C198.255 76.3546 202.779 75.4092 206.408 73.5185C210.085 71.6279 212.867 68.9857 214.754 65.5922C216.641 62.1502 217.585 58.1507 217.585 53.5936C217.585 48.9881 216.641 45.0128 214.754 41.6678C212.867 38.2742 210.085 35.6564 206.408 33.8142C202.731 31.972 198.207 31.0509 192.836 31.0509H175.128V150.964H139.202Z" fill="#E63946"/>
<path d="M308.451 2.03612L292.513 151.022H287.404L272.526 2.03612H308.451Z" fill="#E63946"/>
<path d="M465.924 55.9933H429.636C429.152 52.2605 428.16 48.8912 426.66 45.8855C425.16 42.8798 423.177 40.3104 420.709 38.1773C418.241 36.0442 415.314 34.4202 411.927 33.3051C408.589 32.1416 404.887 31.5599 400.823 31.5599C393.614 31.5599 387.396 33.3294 382.171 36.8683C376.994 40.4073 373.002 45.5219 370.196 52.212C367.438 58.9021 366.059 66.9981 366.059 76.5C366.059 86.3897 367.462 94.6797 370.268 101.37C373.123 108.011 377.115 113.029 382.243 116.423C387.421 119.768 393.541 121.44 400.605 121.44C404.573 121.44 408.177 120.931 411.419 119.913C414.709 118.895 417.588 117.416 420.056 115.477C422.572 113.49 424.628 111.09 426.225 108.278C427.87 105.418 429.007 102.194 429.636 98.6065L465.924 98.8246C465.295 105.418 463.384 111.914 460.191 118.313C457.046 124.712 452.715 130.554 447.2 135.838C441.684 141.074 434.958 145.243 427.023 148.346C419.137 151.449 410.089 153 399.88 153C386.429 153 374.381 150.043 363.736 144.128C353.14 138.165 344.77 129.488 338.625 118.095C332.48 106.702 329.408 92.8374 329.408 76.5C329.408 60.1141 332.528 46.2248 338.77 34.8322C345.012 23.4396 353.455 14.7861 364.099 8.87167C374.744 2.95722 386.671 0 399.88 0C408.879 0 417.201 1.26046 424.846 3.78137C432.491 6.2538 439.216 9.88973 445.022 14.6892C450.828 19.4401 455.546 25.2819 459.175 32.2144C462.804 39.1469 465.053 47.0732 465.924 55.9933Z" fill="#E63946"/>
<path d="M486.482 150.964V2.03612H590.121V31.269H522.407V61.8108H584.823V91.1164H522.407V121.731H590.121V150.964H486.482Z" fill="#E63946"/>
<path d="M612.62 150.964V2.03612H714.082V31.269H648.545V61.8108H707.623V91.1164H648.545V150.964H612.62Z" fill="#E63946"/>
<path d="M822.095 2.03612H857.947V98.0974C857.947 109.199 855.31 118.871 850.037 127.112C844.763 135.305 837.408 141.656 827.973 146.164C818.538 150.625 807.579 152.855 795.096 152.855C782.468 152.855 771.436 150.625 762.001 146.164C752.566 141.656 745.236 135.305 740.01 127.112C734.785 118.871 732.172 109.199 732.172 98.0974V2.03612H768.097V94.9705C768.097 100.109 769.21 104.691 771.436 108.714C773.71 112.738 776.879 115.889 780.944 118.168C785.008 120.446 789.725 121.586 795.096 121.586C800.467 121.586 805.16 120.446 809.176 118.168C813.24 115.889 816.409 112.738 818.683 108.714C820.957 104.691 822.095 100.109 822.095 94.9705V2.03612Z" fill="#E63946"/>
<path d="M960.807 46.6854C960.323 41.3527 958.17 37.2077 954.347 34.2505C950.573 31.2448 945.179 29.7419 938.163 29.7419C933.518 29.7419 929.647 30.3479 926.551 31.5599C923.454 32.7719 921.131 34.4444 919.583 36.5775C918.035 38.6621 917.237 41.0618 917.188 43.7766C917.091 46.0067 917.527 47.9701 918.495 49.6668C919.511 51.3636 920.962 52.8664 922.849 54.1754C924.785 55.4358 927.107 56.5509 929.817 57.5204C932.526 58.49 935.574 59.3384 938.961 60.0656L951.735 62.9743C959.089 64.5742 965.573 66.7072 971.185 69.3736C976.846 72.0399 981.588 75.2153 985.41 78.8997C989.281 82.5841 992.208 86.826 994.192 91.6255C996.176 96.4249 997.192 101.806 997.24 107.769C997.192 117.174 994.821 125.246 990.128 131.984C985.434 138.723 978.685 143.886 969.879 147.473C961.121 151.061 950.549 152.855 938.163 152.855C925.728 152.855 914.89 150.988 905.648 147.255C896.407 143.522 889.222 137.85 884.093 130.239C878.964 122.628 876.327 113.005 876.182 101.37H910.584C910.874 106.169 912.156 110.169 914.43 113.368C916.704 116.568 919.825 118.992 923.793 120.64C927.809 122.288 932.453 123.113 937.727 123.113C942.566 123.113 946.678 122.458 950.065 121.149C953.501 119.84 956.138 118.022 957.976 115.695C959.815 113.368 960.758 110.702 960.807 107.696C960.758 104.884 959.887 102.485 958.194 100.497C956.5 98.461 953.888 96.7158 950.356 95.2614C946.872 93.7586 942.421 92.3769 937.002 91.1164L921.47 87.4805C908.6 84.5233 898.463 79.7481 891.06 73.1549C883.658 66.5133 879.98 57.5447 880.029 46.2491C879.98 37.038 882.448 28.9663 887.432 22.0337C892.415 15.1012 899.31 9.69582 908.116 5.8175C916.922 1.93917 926.962 0 938.235 0C949.751 0 959.742 1.9634 968.21 5.89021C976.725 9.76854 983.33 15.2224 988.023 22.2519C992.716 29.2814 995.111 37.4259 995.208 46.6854H960.807Z" fill="#E63946"/>
<path d="M1051.31 2.03612L1035.93 150.964H1030.82L1015.38 2.03612H1051.31Z" fill="#E63946"/>
<path d="M1376 2.03612V150.964H1345.52L1286.37 65.0105H1285.42V150.964H1249.5V2.03612H1280.42L1338.91 87.8441H1340.15V2.03612H1376Z" fill="#E63946"/>
<path d="M1160 100C1160.16 100.002 1160.31 99.9641 1160.45 99.89C1166.69 96.77 1171.76 90.07 1173.68 82.4L1174 81.24C1174.06 80.9748 1174.02 80.6952 1173.88 80.4626C1173.73 80.2301 1173.51 80.0637 1173.24 80C1172.97 79.9364 1172.7 79.9807 1172.46 80.1232C1172.23 80.2657 1172.06 80.4948 1172 80.76L1171.71 81.91C1170 89 1165.29 95.24 1159.55 98.11C1159.31 98.2299 1159.14 98.4382 1159.05 98.6892C1158.97 98.9403 1158.99 99.2139 1159.11 99.45C1159.19 99.6149 1159.32 99.7536 1159.48 99.8507C1159.63 99.9478 1159.82 99.9995 1160 100ZM1124.66 69.59L1124.23 70.59C1124.13 70.8328 1124.12 71.1068 1124.22 71.3522C1124.32 71.5976 1124.51 71.7946 1124.75 71.9C1124.88 71.9514 1125.01 71.9785 1125.15 71.98C1125.35 71.9799 1125.54 71.9219 1125.7 71.8135C1125.87 71.705 1125.99 71.5508 1126.07 71.37L1126.5 70.37C1126.85 69.5253 1127.02 68.6181 1127 67.7046C1126.98 66.7912 1126.78 65.8911 1126.4 65.06C1126.15 64.4844 1126.01 63.8644 1126 63.236C1125.99 62.6077 1126.11 61.9836 1126.34 61.4L1126.77 60.4C1126.83 60.2782 1126.86 60.1462 1126.86 60.0117C1126.87 59.8772 1126.85 59.7431 1126.8 59.6173C1126.75 59.4916 1126.68 59.3769 1126.58 59.2801C1126.49 59.1832 1126.38 59.1062 1126.26 59.0537C1126.13 59.0011 1126 58.9742 1125.86 58.9744C1125.73 58.9746 1125.6 59.0019 1125.47 59.0548C1125.35 59.1077 1125.24 59.185 1125.14 59.2821C1125.05 59.3792 1124.98 59.4942 1124.93 59.62L1124.5 60.62C1124.15 61.4648 1123.98 62.372 1124 63.2854C1124.02 64.1988 1124.22 65.099 1124.6 65.93C1124.85 66.5056 1124.99 67.1257 1125 67.754C1125.01 68.3823 1124.89 69.0064 1124.66 69.59ZM1132.66 69.59L1132.23 70.59C1132.13 70.8328 1132.12 71.1068 1132.22 71.3522C1132.32 71.5976 1132.51 71.7946 1132.75 71.9C1132.88 71.9514 1133.01 71.9785 1133.15 71.98C1133.35 71.9799 1133.54 71.9219 1133.7 71.8135C1133.87 71.705 1133.99 71.5508 1134.07 71.37L1134.5 70.37C1134.85 69.5253 1135.02 68.6181 1135 67.7046C1134.98 66.7912 1134.78 65.8911 1134.4 65.06C1134.15 64.4844 1134.01 63.8644 1134 63.236C1133.99 62.6077 1134.11 61.9836 1134.34 61.4L1134.77 60.4C1134.83 60.2782 1134.86 60.1462 1134.86 60.0117C1134.87 59.8772 1134.85 59.7431 1134.8 59.6173C1134.75 59.4916 1134.68 59.3769 1134.58 59.2801C1134.49 59.1832 1134.38 59.1062 1134.26 59.0537C1134.13 59.0011 1134 58.9742 1133.86 58.9744C1133.73 58.9746 1133.6 59.0019 1133.47 59.0548C1133.35 59.1077 1133.24 59.185 1133.14 59.2821C1133.05 59.3792 1132.98 59.4942 1132.93 59.62L1132.5 60.62C1132.15 61.4648 1131.98 62.372 1132 63.2854C1132.02 64.1988 1132.22 65.099 1132.6 65.93C1132.85 66.5056 1132.99 67.1257 1133 67.754C1133.01 68.3823 1132.89 69.0064 1132.66 69.59ZM1161.23 70.61C1161.13 70.8528 1161.12 71.1268 1161.22 71.3722C1161.32 71.6176 1161.51 71.8146 1161.75 71.92C1161.88 71.9714 1162.01 71.9985 1162.15 72C1162.35 71.9999 1162.54 71.9419 1162.7 71.8335C1162.87 71.725 1162.99 71.5708 1163.07 71.39L1163.5 70.39C1163.85 69.5453 1164.02 68.6381 1164 67.7246C1163.98 66.8112 1163.78 65.9111 1163.4 65.08C1163.15 64.5044 1163.01 63.8844 1163 63.256C1162.99 62.6277 1163.11 62.0036 1163.34 61.42L1163.77 60.42C1163.83 60.2982 1163.86 60.1661 1163.86 60.0317C1163.87 59.8972 1163.85 59.7631 1163.8 59.6373C1163.75 59.5116 1163.68 59.3969 1163.58 59.3001C1163.49 59.2032 1163.38 59.1262 1163.26 59.0737C1163.13 59.0211 1163 58.9942 1162.86 58.9944C1162.73 58.9946 1162.6 59.0219 1162.47 59.0748C1162.35 59.1277 1162.24 59.205 1162.14 59.3021C1162.05 59.3992 1161.98 59.5142 1161.93 59.64L1161.5 60.64C1161.15 61.4848 1160.98 62.392 1161 63.3054C1161.02 64.2188 1161.22 65.119 1161.6 65.95C1161.85 66.5257 1161.99 67.1457 1162 67.774C1162.01 68.4023 1161.89 69.0264 1161.66 69.61L1161.23 70.61ZM1169.23 70.61C1169.13 70.8528 1169.12 71.1268 1169.22 71.3722C1169.32 71.6176 1169.51 71.8146 1169.75 71.92C1169.88 71.9714 1170.01 71.9985 1170.15 72C1170.35 71.9999 1170.54 71.9419 1170.7 71.8335C1170.87 71.725 1170.99 71.5708 1171.07 71.39L1171.5 70.39C1171.85 69.5453 1172.02 68.6381 1172 67.7246C1171.98 66.8112 1171.78 65.9111 1171.4 65.08C1171.15 64.5044 1171.01 63.8844 1171 63.256C1170.99 62.6277 1171.11 62.0036 1171.34 61.42L1171.77 60.42C1171.83 60.2982 1171.86 60.1661 1171.86 60.0317C1171.87 59.8972 1171.85 59.7631 1171.8 59.6373C1171.75 59.5116 1171.68 59.3969 1171.58 59.3001C1171.49 59.2032 1171.38 59.1262 1171.26 59.0737C1171.13 59.0211 1171 58.9942 1170.86 58.9944C1170.73 58.9946 1170.6 59.0219 1170.47 59.0748C1170.35 59.1277 1170.24 59.205 1170.14 59.3021C1170.05 59.3992 1169.98 59.5142 1169.93 59.64L1169.5 60.64C1169.15 61.4848 1168.98 62.392 1169 63.3054C1169.02 64.2188 1169.22 65.119 1169.6 65.95C1169.85 66.5257 1169.99 67.1457 1170 67.774C1170.01 68.4023 1169.89 69.0264 1169.66 69.61L1169.23 70.61Z" fill="#FEFBE6"/>
<path d="M1178 53H1158V52H1178C1178.27 52 1178.52 51.8947 1178.71 51.7071C1178.89 51.5196 1179 51.2652 1179 51C1179 50.7348 1178.89 50.4804 1178.71 50.2929C1178.52 50.1054 1178.27 50 1178 50H1157.22C1156.69 49.4141 1155.95 49.0621 1155.16 49.0209C1154.36 48.9797 1153.59 49.2526 1153 49.78C1152.45 49.2881 1151.74 49.0161 1151 49.0161C1150.26 49.0161 1149.55 49.2881 1149 49.78C1148.45 49.2881 1147.74 49.0161 1147 49.0161C1146.26 49.0161 1145.55 49.2881 1145 49.78C1144.41 49.2526 1143.64 48.9797 1142.84 49.0209C1142.05 49.0621 1141.31 49.4141 1140.78 50H1135C1134.73 50 1134.48 50.1054 1134.29 50.2929C1134.11 50.4804 1134 50.7348 1134 51V54C1134 54.2652 1134.11 54.5196 1134.29 54.7071C1134.48 54.8947 1134.73 55 1135 55H1140V76H1119C1118.73 76 1118.48 76.1054 1118.29 76.2929C1118.11 76.4804 1118 76.7348 1118 77C1118 89.71 1124.5 100.24 1135 104.67V108C1135 108.265 1135.11 108.52 1135.29 108.707C1135.48 108.895 1135.73 109 1136 109H1160C1160.27 109 1160.52 108.895 1160.71 108.707C1160.89 108.52 1161 108.265 1161 108V104.67C1171.5 100.24 1178 89.67 1178 77C1178 76.7348 1177.89 76.4804 1177.71 76.2929C1177.52 76.1054 1177.27 76 1177 76H1158V55H1178C1178.27 55 1178.52 54.8947 1178.71 54.7071C1178.89 54.5196 1179 54.2652 1179 54C1179 53.7348 1178.89 53.4804 1178.71 53.2929C1178.52 53.1054 1178.27 53 1178 53ZM1151 51C1151.27 51 1151.52 51.1054 1151.71 51.2929C1151.89 51.4804 1152 51.7348 1152 52V76H1150V52C1150 51.7348 1150.11 51.4804 1150.29 51.2929C1150.48 51.1054 1150.73 51 1151 51ZM1147 51C1147.27 51 1147.52 51.1054 1147.71 51.2929C1147.89 51.4804 1148 51.7348 1148 52V76H1146V52C1146 51.7348 1146.11 51.4804 1146.29 51.2929C1146.48 51.1054 1146.73 51 1147 51ZM1136 53V52H1140V53H1136ZM1142 52C1142 51.7348 1142.11 51.4804 1142.29 51.2929C1142.48 51.1054 1142.73 51 1143 51C1143.27 51 1143.52 51.1054 1143.71 51.2929C1143.89 51.4804 1144 51.7348 1144 52V76H1142V52ZM1159.63 103.07C1159.44 103.144 1159.28 103.272 1159.17 103.438C1159.06 103.604 1159 103.8 1159 104V107H1137V104C1137 103.8 1136.94 103.604 1136.83 103.438C1136.72 103.272 1136.56 103.144 1136.37 103.07C1126.55 99.22 1120.35 89.67 1120 78H1176C1175.65 89.67 1169.45 99.22 1159.63 103.07ZM1154 76V52C1154 51.7348 1154.11 51.4804 1154.29 51.2929C1154.48 51.1054 1154.73 51 1155 51C1155.27 51 1155.52 51.1054 1155.71 51.2929C1155.89 51.4804 1156 51.7348 1156 52V76H1154Z" fill="#FEFBE6"/>
</svg>
