<svg width="154" height="34" viewBox="0 0 154 34" fill="none" xmlns="http://www.w3.org/2000/svg">
<path d="M45.1094 22.6914C45.1094 23.4336 44.957 24.0039 44.6523 24.4023C44.3555 24.8008 43.8594 25 43.1641 25C42.5078 25 42.043 24.8008 41.7695 24.4023C41.5039 24.0039 41.3711 23.4336 41.3711 22.6914V10.3047C41.3711 9.5625 41.5039 8.99219 41.7695 8.59375C42.043 8.19531 42.5078 7.99609 43.1641 7.99609C43.8594 7.99609 44.3555 8.19531 44.6523 8.59375C44.957 8.99219 45.1094 9.5625 45.1094 10.3047V22.6914Z" fill="#E63946"/>
<path d="M46.2441 19.0938C46.2441 18.2656 46.3769 17.4844 46.6426 16.75C46.916 16.0078 47.3222 15.3594 47.8613 14.8047C48.4082 14.25 49.0879 13.8086 49.9004 13.4805C50.7207 13.1523 51.6816 12.9883 52.7832 12.9883C53.8379 12.9883 54.7715 13.1406 55.584 13.4453C56.3965 13.75 57.0801 14.1758 57.6347 14.7227C58.1894 15.2617 58.6113 15.9062 58.9004 16.6562C59.1894 17.3984 59.334 18.2109 59.334 19.0938C59.334 19.9141 59.1972 20.6914 58.9238 21.4258C58.6504 22.1523 58.2402 22.793 57.6933 23.3477C57.1465 23.8945 56.4629 24.332 55.6426 24.6602C54.8222 24.9805 53.8691 25.1406 52.7832 25.1406C51.7129 25.1406 50.7676 24.9883 49.9472 24.6836C49.1347 24.3711 48.4512 23.9453 47.8965 23.4062C47.3496 22.8594 46.9355 22.2188 46.6543 21.4844C46.3808 20.7422 46.2441 19.9453 46.2441 19.0938ZM50.1465 19.0938C50.1465 19.6094 50.1933 20.1016 50.2871 20.5703C50.3808 21.0312 50.5293 21.4375 50.7324 21.7891C50.9433 22.1406 51.2168 22.4219 51.5527 22.6328C51.8887 22.8359 52.2988 22.9375 52.7832 22.9375C53.2285 22.9375 53.6152 22.8438 53.9433 22.6562C54.2793 22.4688 54.5527 22.207 54.7637 21.8711C54.9824 21.5352 55.1465 21.1328 55.2558 20.6641C55.3652 20.1875 55.4199 19.6641 55.4199 19.0938C55.4199 18.5781 55.3691 18.0898 55.2676 17.6289C55.1738 17.1602 55.0215 16.75 54.8105 16.3984C54.5996 16.0391 54.3262 15.7578 53.9902 15.5547C53.6621 15.3438 53.2597 15.2383 52.7832 15.2383C52.3066 15.2383 51.9004 15.3398 51.5644 15.543C51.2285 15.7461 50.9551 16.0234 50.7441 16.375C50.5332 16.7266 50.3808 17.1367 50.2871 17.6055C50.1933 18.0742 50.1465 18.5703 50.1465 19.0938Z" fill="#E63946"/>
<path d="M68.9532 22.7383C68.7422 23.1289 68.4844 23.4609 68.1797 23.7344C67.8829 24.0078 67.5508 24.2344 67.1837 24.4141C66.8243 24.5859 66.4376 24.7148 66.0235 24.8008C65.6172 24.8789 65.1993 24.918 64.7696 24.918C64.0508 24.918 63.3946 24.7891 62.8008 24.5312C62.2071 24.2734 61.6954 23.9023 61.2657 23.418C60.8438 22.9258 60.5157 22.3242 60.2813 21.6133C60.0469 20.9023 59.9297 20.0898 59.9297 19.1758C59.9297 18.3164 60.0391 17.5117 60.2579 16.7617C60.4766 16.0117 60.793 15.3594 61.2071 14.8047C61.629 14.25 62.1446 13.8125 62.754 13.4922C63.3633 13.1719 64.0587 13.0117 64.8399 13.0117C65.7305 13.0117 66.5196 13.1836 67.2071 13.5273C67.9024 13.8711 68.5001 14.4336 69.0001 15.2148V14.9102C69.0001 14.3477 69.1524 13.9258 69.4571 13.6445C69.7696 13.3555 70.1993 13.2109 70.7462 13.2109C71.0743 13.2109 71.3516 13.2656 71.5782 13.375C71.8047 13.4766 71.9844 13.6328 72.1172 13.8438C72.2501 14.0469 72.3438 14.3008 72.3985 14.6055C72.461 14.9023 72.4922 15.2422 72.4922 15.625V23.4766C72.4922 24.4297 72.3712 25.2812 72.129 26.0312C71.8946 26.7812 71.5274 27.4141 71.0274 27.9297C70.5274 28.4453 69.8868 28.8359 69.1055 29.1016C68.3243 29.375 67.3946 29.5117 66.3165 29.5117C65.5587 29.5117 64.8868 29.4766 64.3008 29.4062C63.7227 29.3438 63.2227 29.2461 62.8008 29.1133C62.379 28.9648 62.0587 28.8008 61.8399 28.6211C61.629 28.4414 61.5235 28.207 61.5235 27.918C61.5235 27.7539 61.5469 27.5977 61.5938 27.4492C61.6407 27.3008 61.711 27.168 61.8047 27.0508C61.9063 26.9414 62.0352 26.8516 62.1915 26.7812C62.3555 26.7188 62.5547 26.6875 62.7891 26.6875C63.0391 26.6875 63.2891 26.7031 63.5391 26.7344C63.7969 26.7656 64.0626 26.7969 64.336 26.8281C64.6172 26.8672 64.9102 26.9023 65.2149 26.9336C65.5274 26.9648 65.8633 26.9805 66.2227 26.9805C66.6524 26.9805 67.0352 26.9375 67.3712 26.8516C67.7071 26.7656 67.9922 26.6133 68.2266 26.3945C68.461 26.1758 68.6407 25.8828 68.7657 25.5156C68.8907 25.1562 68.9532 24.6953 68.9532 24.1328V22.7383ZM68.9532 19.0938C68.9532 18.5234 68.9102 18.0039 68.8243 17.5352C68.7462 17.0664 68.6094 16.668 68.4141 16.3398C68.2188 16.0039 67.9571 15.7461 67.629 15.5664C67.3008 15.3789 66.8907 15.2852 66.3985 15.2852C65.9141 15.2852 65.5118 15.3828 65.1915 15.5781C64.879 15.7734 64.629 16.043 64.4415 16.3867C64.254 16.7305 64.1212 17.1328 64.043 17.5938C63.9727 18.0547 63.9376 18.5469 63.9376 19.0703C63.9376 20.2656 64.1485 21.1641 64.5704 21.7656C64.9922 22.3672 65.6055 22.668 66.4102 22.668C66.7852 22.6602 67.1251 22.5898 67.4297 22.457C67.7422 22.3164 68.0118 22.1016 68.2383 21.8125C68.4649 21.5234 68.6407 21.1562 68.7657 20.7109C68.8907 20.2656 68.9532 19.7266 68.9532 19.0938Z" fill="#E63946"/>
<path d="M73.5684 19.0938C73.5684 18.2656 73.7012 17.4844 73.9668 16.75C74.2403 16.0078 74.6465 15.3594 75.1856 14.8047C75.7325 14.25 76.4121 13.8086 77.2246 13.4805C78.045 13.1523 79.0059 12.9883 80.1075 12.9883C81.1621 12.9883 82.0957 13.1406 82.9082 13.4453C83.7207 13.75 84.4043 14.1758 84.959 14.7227C85.5137 15.2617 85.9356 15.9062 86.2246 16.6562C86.5137 17.3984 86.6582 18.2109 86.6582 19.0938C86.6582 19.9141 86.5215 20.6914 86.2481 21.4258C85.9746 22.1523 85.5645 22.793 85.0176 23.3477C84.4707 23.8945 83.7871 24.332 82.9668 24.6602C82.1465 24.9805 81.1934 25.1406 80.1075 25.1406C79.0371 25.1406 78.0918 24.9883 77.2715 24.6836C76.459 24.3711 75.7754 23.9453 75.2207 23.4062C74.6739 22.8594 74.2598 22.2188 73.9785 21.4844C73.7051 20.7422 73.5684 19.9453 73.5684 19.0938ZM77.4707 19.0938C77.4707 19.6094 77.5176 20.1016 77.6114 20.5703C77.7051 21.0312 77.8535 21.4375 78.0567 21.7891C78.2676 22.1406 78.541 22.4219 78.877 22.6328C79.2129 22.8359 79.6231 22.9375 80.1075 22.9375C80.5528 22.9375 80.9395 22.8438 81.2676 22.6562C81.6035 22.4688 81.877 22.207 82.0879 21.8711C82.3067 21.5352 82.4707 21.1328 82.5801 20.6641C82.6895 20.1875 82.7442 19.6641 82.7442 19.0938C82.7442 18.5781 82.6934 18.0898 82.5918 17.6289C82.4981 17.1602 82.3457 16.75 82.1348 16.3984C81.9239 16.0391 81.6504 15.7578 81.3145 15.5547C80.9864 15.3438 80.584 15.2383 80.1075 15.2383C79.6309 15.2383 79.2246 15.3398 78.8887 15.543C78.5528 15.7461 78.2793 16.0234 78.0684 16.375C77.8575 16.7266 77.7051 17.1367 77.6114 17.6055C77.5176 18.0742 77.4707 18.5703 77.4707 19.0938Z" fill="#E63946"/>
<path d="M91.6836 9.03906C91.6836 9.29688 91.625 9.52734 91.5078 9.73047C91.3906 9.92578 91.2383 10.0898 91.0508 10.2227C90.8633 10.3555 90.6445 10.457 90.3945 10.5273C90.1524 10.5898 89.9024 10.6211 89.6445 10.6211C89.3711 10.6211 89.1094 10.5859 88.8594 10.5156C88.6172 10.4453 88.4024 10.3438 88.2149 10.2109C88.0274 10.0703 87.8789 9.90234 87.7695 9.70703C87.6602 9.51172 87.6055 9.28906 87.6055 9.03906C87.6055 8.8125 87.6563 8.60547 87.7578 8.41797C87.8672 8.22266 88.0117 8.05469 88.1914 7.91406C88.3711 7.77344 88.586 7.66406 88.836 7.58594C89.086 7.50781 89.3594 7.46875 89.6563 7.46875C89.9141 7.46875 90.1641 7.50391 90.4063 7.57422C90.6563 7.64453 90.875 7.74609 91.0625 7.87891C91.25 8.01172 91.3985 8.17578 91.5078 8.37109C91.625 8.56641 91.6836 8.78906 91.6836 9.03906ZM91.5078 22.6914C91.5078 23.4336 91.3555 24.0039 91.0508 24.4023C90.7539 24.8008 90.2578 25 89.5625 25C88.9063 25 88.4414 24.8008 88.168 24.4023C87.9024 24.0039 87.7695 23.4336 87.7695 22.6914V15.5195C87.7695 14.7773 87.9024 14.207 88.168 13.8086C88.4414 13.4102 88.9063 13.2109 89.5625 13.2109C90.2578 13.2109 90.7539 13.4102 91.0508 13.8086C91.3555 14.207 91.5078 14.7773 91.5078 15.5195V22.6914Z" fill="#E63946"/>
<path d="M96.8965 19.0703C96.8965 19.5938 96.9355 20.082 97.0137 20.5352C97.0996 20.9883 97.2402 21.3867 97.4355 21.7305C97.6387 22.0664 97.9043 22.332 98.2324 22.5273C98.5683 22.7227 98.9824 22.8203 99.4746 22.8203C99.9277 22.8203 100.307 22.7266 100.612 22.5391C100.924 22.3438 101.174 22.0781 101.362 21.7422C101.549 21.3984 101.682 20.9961 101.76 20.5352C101.846 20.0742 101.889 19.5742 101.889 19.0352C101.889 18.6055 101.858 18.168 101.795 17.7227C101.733 17.2695 101.616 16.8594 101.444 16.4922C101.272 16.125 101.034 15.8242 100.729 15.5898C100.424 15.3555 100.026 15.2383 99.5332 15.2383C99.041 15.2383 98.623 15.3164 98.2793 15.4727C97.9433 15.6289 97.6699 15.8672 97.459 16.1875C97.2558 16.5078 97.1113 16.9102 97.0254 17.3945C96.9394 17.8711 96.8965 18.4297 96.8965 19.0703ZM96.8848 15.5195C97.0801 15.1055 97.3301 14.7422 97.6348 14.4297C97.9394 14.1172 98.2754 13.8555 98.6426 13.6445C99.0098 13.4336 99.3926 13.2773 99.791 13.1758C100.198 13.0664 100.6 13.0117 100.998 13.0117C101.717 13.0117 102.366 13.1719 102.944 13.4922C103.522 13.8125 104.014 14.25 104.42 14.8047C104.834 15.3516 105.151 16 105.37 16.75C105.588 17.4922 105.698 18.2891 105.698 19.1406C105.698 20.0234 105.58 20.832 105.346 21.5664C105.12 22.3008 104.795 22.9336 104.373 23.4648C103.959 23.9883 103.459 24.3984 102.873 24.6953C102.295 24.9922 101.651 25.1406 100.94 25.1406C100.065 25.1406 99.2832 24.9375 98.5957 24.5312C97.9082 24.125 97.3379 23.5547 96.8848 22.8203V27.0391C96.8848 27.7812 96.7324 28.3516 96.4277 28.75C96.1308 29.1484 95.6348 29.3477 94.9394 29.3477C94.2832 29.3477 93.8183 29.1484 93.5449 28.75C93.2793 28.3516 93.1465 27.7812 93.1465 27.0391V15.5195C93.1465 14.7773 93.2793 14.207 93.5449 13.8086C93.8183 13.4102 94.2832 13.2109 94.9394 13.2109C95.6348 13.2109 96.1308 13.4102 96.4277 13.8086C96.7324 14.207 96.8848 14.7773 96.8848 15.5195Z" fill="#E63946"/>
<path d="M109.821 16.3516C109.821 16.6562 109.954 16.8945 110.219 17.0664C110.485 17.2305 110.852 17.3672 111.321 17.4766C111.766 17.5781 112.223 17.6758 112.692 17.7695C113.161 17.8633 113.618 17.9727 114.063 18.0977C114.508 18.2148 114.926 18.3555 115.317 18.5195C115.707 18.6836 116.051 18.8906 116.348 19.1406C116.645 19.3828 116.879 19.6797 117.051 20.0312C117.223 20.375 117.309 20.7891 117.309 21.2734C117.309 21.8828 117.184 22.4258 116.934 22.9023C116.684 23.3711 116.329 23.7695 115.868 24.0977C115.415 24.4258 114.872 24.6797 114.239 24.8594C113.606 25.0391 112.907 25.1328 112.141 25.1406C111.415 25.1406 110.715 25.0938 110.043 25C109.372 24.9141 108.774 24.7773 108.25 24.5898C107.735 24.4023 107.321 24.1719 107.008 23.8984C106.696 23.6172 106.54 23.2891 106.54 22.9141C106.54 22.5859 106.645 22.332 106.856 22.1523C107.067 21.9727 107.336 21.8828 107.665 21.8828C107.79 21.8828 107.938 21.9062 108.11 21.9531C108.282 22 108.469 22.0586 108.672 22.1289C108.875 22.1992 109.09 22.2773 109.317 22.3633C109.551 22.4414 109.793 22.5117 110.043 22.5742C110.356 22.6602 110.676 22.7305 111.004 22.7852C111.34 22.832 111.684 22.8555 112.036 22.8555C112.254 22.8555 112.469 22.8359 112.68 22.7969C112.891 22.75 113.079 22.6836 113.243 22.5977C113.415 22.5039 113.555 22.3867 113.665 22.2461C113.774 22.1055 113.84 21.9336 113.864 21.7305C113.887 21.6836 113.907 21.6367 113.922 21.5898C113.938 21.543 113.946 21.4883 113.946 21.4258C113.946 21.207 113.844 21.0117 113.641 20.8398C113.446 20.668 113.168 20.5312 112.809 20.4297C112.207 20.2891 111.633 20.1602 111.086 20.043C110.54 19.9258 110.032 19.8008 109.563 19.668C109.102 19.5352 108.68 19.3828 108.297 19.2109C107.922 19.0391 107.602 18.8281 107.336 18.5781C107.079 18.3281 106.875 18.0273 106.727 17.6758C106.586 17.3242 106.516 16.8984 106.516 16.3984C106.516 15.8594 106.637 15.3789 106.879 14.957C107.129 14.5273 107.485 14.168 107.946 13.8789C108.407 13.5898 108.965 13.3711 109.622 13.2227C110.278 13.0664 111.02 12.9883 111.848 12.9883C113.332 12.9883 114.461 13.168 115.235 13.5273C116.016 13.8789 116.407 14.3398 116.407 14.9102C116.407 15.2305 116.301 15.4766 116.09 15.6484C115.879 15.8125 115.625 15.8945 115.329 15.8945C115.172 15.8945 115.008 15.8672 114.836 15.8125C114.672 15.75 114.473 15.6836 114.239 15.6133C114.004 15.5352 113.723 15.4688 113.395 15.4141C113.075 15.3516 112.676 15.3203 112.2 15.3203C111.84 15.3203 111.512 15.3359 111.215 15.3672C110.926 15.3984 110.676 15.4531 110.465 15.5312C110.262 15.6094 110.102 15.7148 109.985 15.8477C109.875 15.9805 109.821 16.1484 109.821 16.3516Z" fill="#E63946"/>
<path d="M122.064 20.6523C122.064 21.0195 122.111 21.3398 122.205 21.6133C122.306 21.8867 122.443 22.1172 122.615 22.3047C122.787 22.4844 122.986 22.6211 123.212 22.7148C123.447 22.8008 123.697 22.8438 123.962 22.8438C124.275 22.8438 124.576 22.7969 124.865 22.7031C125.154 22.6094 125.408 22.4648 125.627 22.2695C125.853 22.0742 126.033 21.8281 126.166 21.5312C126.298 21.2344 126.365 20.8867 126.365 20.4883V15.5195C126.365 14.7773 126.498 14.207 126.763 13.8086C127.037 13.4102 127.502 13.2109 128.158 13.2109C128.853 13.2109 129.349 13.4102 129.646 13.8086C129.951 14.207 130.103 14.7773 130.103 15.5195V22.6914C130.103 23.4336 129.951 24.0039 129.646 24.4023C129.349 24.8008 128.853 25 128.158 25C127.502 25 127.037 24.8008 126.763 24.4023C126.498 24.0039 126.365 23.4336 126.365 22.6914C126.201 23.0508 125.986 23.3789 125.72 23.6758C125.462 23.9727 125.158 24.2305 124.806 24.4492C124.462 24.6602 124.08 24.8242 123.658 24.9414C123.244 25.0586 122.794 25.1172 122.31 25.1172C121.787 25.1172 121.283 25.0273 120.798 24.8477C120.322 24.6602 119.9 24.3867 119.533 24.0273C119.166 23.6602 118.873 23.207 118.654 22.668C118.435 22.1289 118.326 21.5 118.326 20.7812V15.5195C118.326 14.7773 118.459 14.207 118.724 13.8086C118.998 13.4102 119.462 13.2109 120.119 13.2109C120.814 13.2109 121.31 13.4102 121.607 13.8086C121.912 14.207 122.064 14.7773 122.064 15.5195V20.6523Z" fill="#E63946"/>
<path d="M131.801 15.5195C131.801 14.7773 131.934 14.207 132.2 13.8086C132.473 13.4102 132.938 13.2109 133.594 13.2109C134.29 13.2109 134.786 13.4102 135.083 13.8086C135.387 14.207 135.54 14.7773 135.54 15.5195C135.696 15.1445 135.907 14.8047 136.173 14.5C136.446 14.1875 136.755 13.9219 137.098 13.7031C137.45 13.4844 137.829 13.3164 138.235 13.1992C138.641 13.0742 139.063 13.0117 139.501 13.0117C139.907 13.0117 140.305 13.0664 140.696 13.1758C141.094 13.2773 141.462 13.4453 141.798 13.6797C142.141 13.9062 142.442 14.1953 142.7 14.5469C142.958 14.8984 143.157 15.3203 143.298 15.8125C143.54 15.2891 143.825 14.8477 144.153 14.4883C144.481 14.1289 144.837 13.8398 145.219 13.6211C145.602 13.4023 146.001 13.2461 146.415 13.1523C146.837 13.0586 147.258 13.0117 147.68 13.0117C148.18 13.0117 148.657 13.1016 149.11 13.2812C149.571 13.4609 149.973 13.7344 150.317 14.1016C150.669 14.4609 150.946 14.918 151.149 15.4727C151.36 16.0195 151.465 16.6602 151.465 17.3945V22.6914C151.465 23.4336 151.313 24.0039 151.008 24.4023C150.712 24.8008 150.215 25 149.52 25C148.864 25 148.399 24.8008 148.126 24.4023C147.86 24.0039 147.727 23.4336 147.727 22.6914V17.5586C147.727 17.207 147.68 16.8945 147.587 16.6211C147.493 16.3398 147.36 16.1055 147.188 15.918C147.024 15.7227 146.829 15.5781 146.602 15.4844C146.376 15.3828 146.133 15.332 145.876 15.332C145.555 15.332 145.251 15.3828 144.962 15.4844C144.673 15.5859 144.419 15.7422 144.2 15.9531C143.989 16.1641 143.817 16.4336 143.684 16.7617C143.559 17.0898 143.497 17.4844 143.497 17.9453V22.6914C143.497 23.4336 143.344 24.0039 143.04 24.4023C142.743 24.8008 142.247 25 141.551 25C140.895 25 140.43 24.8008 140.157 24.4023C139.891 24.0039 139.758 23.4336 139.758 22.6914V17.7812C139.758 16.9766 139.59 16.3672 139.255 15.9531C138.926 15.5391 138.477 15.332 137.907 15.332C137.571 15.332 137.258 15.3867 136.969 15.4961C136.68 15.6055 136.43 15.7656 136.219 15.9766C136.008 16.1875 135.84 16.4492 135.715 16.7617C135.598 17.0742 135.54 17.4336 135.54 17.8398V22.6914C135.54 23.4336 135.387 24.0039 135.083 24.4023C134.786 24.8008 134.29 25 133.594 25C132.938 25 132.473 24.8008 132.2 24.4023C131.934 24.0039 131.801 23.4336 131.801 22.6914V15.5195Z" fill="#E63946"/>
<path d="M17 23C13.6863 23 11 20.3137 11 17C11 13.6863 13.6863 11 17 11C20.3137 11 23 13.6863 23 17C23 20.3137 20.3137 23 17 23Z" fill="#E63946"/>
<path d="M5.37702 19.0507C3.63827 19.3573 2.44645 21.0369 3.1139 22.6715C4.04574 24.9535 5.53237 26.9867 7.45968 28.5755C10.2156 30.8472 13.6916 32.0611 17.2626 31.9988C20.8336 31.9365 24.2652 30.602 26.9402 28.2354C28.8108 26.5804 30.2256 24.4965 31.0773 22.1834C31.6873 20.5265 30.4375 18.8895 28.6891 18.6438C26.9408 18.3981 25.371 19.6707 24.5074 21.2107C24.0393 22.0454 23.4316 22.8027 22.7036 23.4468C21.1688 24.8047 19.1999 25.5703 17.1511 25.6061C15.1022 25.6418 13.1078 24.9454 11.5266 23.6419C10.7765 23.0236 10.1428 22.288 9.64581 21.4701C8.72902 19.9612 7.11577 18.7441 5.37702 19.0507Z" fill="#E63946"/>
<path d="M31.884 18.8745C31.9606 18.2604 32 17.6348 32 17C32 8.71573 25.2843 2 17 2C8.71573 2 2 8.71573 2 17C2 17.8147 2.06495 18.6142 2.18996 19.3937C2.87894 18.4505 3.95426 17.7772 5.11576 17.5724C6.37245 17.3508 7.51458 17.6556 8.48027 18.2253C8.42322 17.8251 8.3937 17.416 8.3937 17C8.3937 12.2469 12.2469 8.3937 17 8.3937C21.7531 8.3937 25.6063 12.2469 25.6063 17C25.6063 17.3134 25.5895 17.6229 25.5569 17.9276C26.5022 17.3243 27.6332 16.9796 28.8971 17.1573C30.0647 17.3214 31.1625 17.9564 31.884 18.8745Z" fill="#E63946"/>
</svg>
