<svg width="171" height="42" viewBox="0 0 171 42" fill="none" xmlns="http://www.w3.org/2000/svg">
<g clip-path="url(#clip0_1641_3341)">
<path d="M51.9043 29.6209H63.8563V26.0209H56.1523V12.4609H51.9043V29.6209Z" fill="#E63946"/>
<path d="M70.9368 27.2201C69.2328 27.2201 68.3448 25.7321 68.3448 23.5001C68.3448 21.2681 69.2328 19.7561 70.9368 19.7561C72.6408 19.7561 73.5528 21.2681 73.5528 23.5001C73.5528 25.7321 72.6408 27.2201 70.9368 27.2201ZM70.9608 30.0041C74.9208 30.0041 77.5128 27.1961 77.5128 23.5001C77.5128 19.8041 74.9208 16.9961 70.9608 16.9961C67.0248 16.9961 64.3848 19.8041 64.3848 23.5001C64.3848 27.1961 67.0248 30.0041 70.9608 30.0041Z" fill="#E63946"/>
<path d="M84.3675 33.8687C86.1915 33.8687 87.7995 33.4607 88.8795 32.5007C89.8635 31.6127 90.5115 30.2687 90.5115 28.4207V17.3327H86.7675V18.6527H86.7195C85.9995 17.6207 84.8955 16.9727 83.2635 16.9727C80.2155 16.9727 78.1035 19.5167 78.1035 23.1167C78.1035 26.8847 80.6715 28.9487 83.4315 28.9487C84.9195 28.9487 85.8555 28.3487 86.5755 27.5327H86.6715V28.7567C86.6715 30.2447 85.9755 31.1087 84.3195 31.1087C83.0235 31.1087 82.3755 30.5567 82.1595 29.9087H78.3675C78.7515 32.4767 80.9835 33.8687 84.3675 33.8687ZM84.3435 26.0447C82.8795 26.0447 81.9195 24.8447 81.9195 22.9967C81.9195 21.1247 82.8795 19.9247 84.3435 19.9247C85.9755 19.9247 86.8395 21.3167 86.8395 22.9727C86.8395 24.7007 86.0475 26.0447 84.3435 26.0447Z" fill="#E63946"/>
<path d="M98.2102 27.2201C96.5062 27.2201 95.6182 25.7321 95.6182 23.5001C95.6182 21.2681 96.5062 19.7561 98.2102 19.7561C99.9142 19.7561 100.826 21.2681 100.826 23.5001C100.826 25.7321 99.9142 27.2201 98.2102 27.2201ZM98.2342 30.0041C102.194 30.0041 104.786 27.1961 104.786 23.5001C104.786 19.8041 102.194 16.9961 98.2342 16.9961C94.2982 16.9961 91.6582 19.8041 91.6582 23.5001C91.6582 27.1961 94.2982 30.0041 98.2342 30.0041Z" fill="#E63946"/>
<path d="M105.93 29.6209H109.842V17.3329H105.93V29.6209ZM105.93 15.6289H109.842V12.4609H105.93V15.6289Z" fill="#E63946"/>
<path d="M111.537 33.6767H115.449V28.3487H115.497C116.265 29.3807 117.393 30.0047 118.977 30.0047C122.193 30.0047 124.329 27.4607 124.329 23.4767C124.329 19.7807 122.337 16.9727 119.073 16.9727C117.393 16.9727 116.193 17.7167 115.353 18.8207H115.281V17.3327H111.537V33.6767ZM117.969 26.9807C116.289 26.9807 115.329 25.6127 115.329 23.6207C115.329 21.6287 116.193 20.1167 117.897 20.1167C119.577 20.1167 120.369 21.5087 120.369 23.6207C120.369 25.7087 119.457 26.9807 117.969 26.9807Z" fill="#E63946"/>
<path d="M130.699 30.0047C133.915 30.0047 136.291 28.6127 136.291 25.9247C136.291 22.7807 133.747 22.2287 131.587 21.8687C130.027 21.5807 128.635 21.4607 128.635 20.5967C128.635 19.8287 129.379 19.4687 130.339 19.4687C131.419 19.4687 132.163 19.8047 132.307 20.9087H135.907C135.715 18.4847 133.843 16.9727 130.363 16.9727C127.459 16.9727 125.059 18.3167 125.059 20.9087C125.059 23.7887 127.339 24.3647 129.475 24.7247C131.107 25.0127 132.595 25.1327 132.595 26.2367C132.595 27.0287 131.851 27.4607 130.675 27.4607C129.379 27.4607 128.563 26.8607 128.419 25.6367H124.723C124.843 28.3487 127.099 30.0047 130.699 30.0047Z" fill="#E63946"/>
<path d="M141.605 29.98C143.309 29.98 144.389 29.308 145.277 28.108H145.349V29.62H149.093V17.332H145.181V24.196C145.181 25.66 144.365 26.668 143.021 26.668C141.773 26.668 141.173 25.924 141.173 24.58V17.332H137.285V25.396C137.285 28.132 138.773 29.98 141.605 29.98Z" fill="#E63946"/>
<path d="M150.795 29.6207H154.707V22.7327C154.707 21.2687 155.427 20.2367 156.651 20.2367C157.827 20.2367 158.379 21.0047 158.379 22.3247V29.6207H162.291V22.7327C162.291 21.2687 162.987 20.2367 164.235 20.2367C165.411 20.2367 165.963 21.0047 165.963 22.3247V29.6207H169.875V21.6287C169.875 18.8687 168.483 16.9727 165.699 16.9727C164.115 16.9727 162.795 17.6447 161.835 19.1327H161.787C161.163 17.8127 159.939 16.9727 158.331 16.9727C156.555 16.9727 155.379 17.8127 154.611 19.0847H154.539V17.3327H150.795V29.6207Z" fill="#E63946"/>
<path fill-rule="evenodd" clip-rule="evenodd" d="M20.7285 40.6211C31.7743 40.6211 40.7285 31.6668 40.7285 20.6211C40.7285 9.57539 31.7743 0.621094 20.7285 0.621094C9.68281 0.621094 0.728516 9.57539 0.728516 20.6211C0.728516 31.6668 9.68281 40.6211 20.7285 40.6211ZM23.8155 16.0737C25.5203 14.3688 25.5203 11.6047 23.8155 9.89975C22.1106 8.19487 19.3465 8.19487 17.6416 9.89975C15.9368 11.6047 15.9368 14.3688 17.6416 16.0737L20.7285 19.1606L23.8155 16.0737ZM25.276 23.7081C26.9809 25.413 29.745 25.413 31.4499 23.7081C33.1547 22.0032 33.1547 19.2391 31.4499 17.5342C29.745 15.8294 26.9809 15.8294 25.276 17.5342L22.1891 20.6212L25.276 23.7081ZM23.8155 31.3425C25.5203 29.6376 25.5203 26.8735 23.8155 25.1686L20.7285 22.0817L17.6416 25.1686C15.9368 26.8735 15.9368 29.6376 17.6416 31.3425C19.3465 33.0474 22.1106 33.0474 23.8155 31.3425ZM10.0071 23.7081C8.3023 22.0032 8.3023 19.2391 10.0071 17.5342C11.7121 15.8294 14.4762 15.8294 16.1811 17.5342L19.268 20.6212L16.1811 23.7081C14.4762 25.413 11.7121 25.413 10.0071 23.7081Z" fill="#E63946"/>
</g>
<defs>
<clipPath id="clip0_1641_3341">
<rect width="170" height="41" fill="white" transform="translate(0.626953 0.296875)"/>
</clipPath>
</defs>
</svg>
